<?xml version="1.0" standalone="no"?>
<!DOCTYPE svg PUBLIC "-//W3C//DTD SVG 20010904//EN"
 "http://www.w3.org/TR/2001/REC-SVG-20010904/DTD/svg10.dtd">
<svg version="1.0" xmlns="http://www.w3.org/2000/svg"
 width="500.000000pt" height="500.000000pt" viewBox="0 0 500.000000 500.000000"
 preserveAspectRatio="xMidYMid meet">
<metadata>
Created by potrace 1.14, written by Peter Selinger 2001-2017
</metadata>
<g transform="translate(0.000000,500.000000) scale(0.100000,-0.100000)"
fill="#000000" stroke="none">
<path d="M2645 4901 c-11 -5 -38 -14 -60 -21 -22 -7 -88 -41 -147 -76 -58 -35
-110 -64 -115 -64 -5 0 -8 14 -5 30 2 17 1 30 -3 30 -4 0 -34 -26 -67 -57 -57
-56 -98 -75 -89 -43 10 34 12 113 4 121 -11 11 -23 -12 -49 -96 -28 -91 -84
-195 -106 -195 -11 0 -20 10 -23 28 -3 15 -12 48 -20 73 -8 26 -15 59 -15 74
0 42 -27 14 -35 -38 -9 -52 -32 -87 -56 -87 -21 0 -25 21 -8 52 21 39 -1 29
-95 -46 -97 -77 -110 -84 -121 -66 -5 8 71 129 94 150 8 7 41 67 41 74 0 21
-294 -205 -371 -286 -53 -55 -86 -66 -66 -20 6 15 14 29 17 32 6 6 24 35 46
74 l16 29 -29 -21 c-16 -11 -60 -54 -99 -94 -53 -56 -73 -87 -88 -131 -21 -61
-48 -77 -61 -34 -7 24 -8 24 -30 -40 -11 -33 -35 -29 -35 6 0 28 -29 109 -30
82 0 -7 -15 -43 -34 -80 -19 -36 -44 -86 -56 -111 -12 -25 -26 -53 -31 -62 -5
-10 -9 -40 -9 -67 0 -57 -7 -81 -24 -81 -18 0 -56 43 -56 63 0 29 -15 19 -32
-20 -18 -43 -23 -80 -44 -305 -3 -43 -9 -78 -11 -78 -3 0 -25 21 -50 48 l-45
47 6 -40 c4 -22 11 -89 17 -150 6 -61 16 -113 22 -117 9 -5 9 -10 0 -19 -10
-10 -18 -10 -38 1 -14 7 -25 19 -25 25 0 7 -6 18 -14 24 -12 10 -16 3 -21 -42
-4 -34 -3 -62 4 -75 6 -11 11 -29 11 -39 0 -10 9 -29 20 -43 11 -14 20 -33 20
-42 0 -10 3 -18 8 -18 10 0 32 -51 26 -61 -3 -5 -12 -9 -20 -9 -8 0 -14 -4
-14 -10 0 -5 -18 -33 -39 -61 -131 -174 -68 -391 130 -446 57 -16 58 -16 51
-47 -4 -17 -7 -125 -6 -241 0 -197 2 -216 28 -309 97 -354 275 -629 526 -815
280 -208 636 -314 1050 -314 360 1 686 77 1000 235 421 211 689 515 797 903
26 94 28 112 28 295 0 209 -9 271 -60 406 -14 37 -25 70 -25 74 0 5 16 18 36
30 72 45 122 172 109 279 -8 73 -56 172 -101 209 -32 27 -34 32 -23 50 19 30
5 38 -21 12 -12 -12 -27 -19 -33 -17 -17 5 -21 35 -9 61 15 33 30 78 38 116 6
32 10 41 34 90 20 40 9 43 -28 7 -64 -63 -67 -58 -65 115 0 84 4 171 8 193 l7
40 -39 -37 c-21 -21 -44 -38 -50 -38 -6 0 -13 34 -17 83 -4 45 -10 116 -14
157 -8 74 -8 75 -21 43 -7 -18 -19 -33 -27 -33 -11 0 -14 17 -14 75 0 41 -4
75 -8 75 -5 0 -21 -26 -36 -57 -15 -32 -30 -65 -35 -73 -10 -18 -41 -26 -41
-11 0 6 -9 33 -21 59 -12 26 -26 58 -31 72 -6 14 -14 33 -19 42 -5 10 -9 29
-9 42 0 14 -4 28 -10 31 -5 3 -10 22 -10 41 0 53 -15 40 -35 -31 -15 -50 -23
-65 -37 -65 -10 0 -20 6 -22 13 -8 29 -28 94 -35 112 -16 41 -31 92 -31 108 0
9 -4 17 -9 17 -11 0 -41 -79 -41 -108 0 -31 -23 -27 -43 8 -10 16 -23 35 -30
42 -7 7 -24 29 -38 48 -61 81 -89 99 -57 37 24 -47 28 -57 28 -72 0 -8 4 -15
9 -15 5 0 12 -16 16 -36 11 -64 -22 -70 -62 -11 -13 17 -42 52 -65 77 -24 25
-63 72 -88 105 l-45 59 -3 -33 c-2 -18 3 -42 11 -54 7 -12 17 -34 21 -49 5
-23 3 -28 -11 -28 -10 0 -24 10 -32 21 -32 52 -51 91 -51 104 0 8 -4 15 -9 15
-6 0 -7 -23 -4 -54 6 -55 -2 -71 -30 -61 -8 4 -20 18 -28 33 -8 15 -16 29 -19
32 -3 3 -25 43 -49 90 -47 92 -61 113 -69 105 -3 -3 -4 -57 -3 -120 2 -95 0
-115 -12 -115 -8 0 -17 10 -20 23 -3 12 -11 40 -17 62 -7 22 -15 80 -19 129
l-6 90 -54 -87 c-55 -88 -83 -108 -96 -67 -4 13 7 39 36 82 24 35 46 65 51 66
13 6 9 22 -4 21 -7 0 -22 -4 -33 -8z m-1137 -1530 c40 -28 120 -66 181 -86 44
-14 55 -15 62 -4 7 11 16 10 56 -5 112 -44 251 -77 342 -83 70 -5 92 -3 87 5
-4 7 -14 12 -22 12 -8 0 -14 4 -14 9 0 6 93 9 225 8 213 -2 224 -1 203 15 -13
9 -20 19 -17 22 5 5 104 -8 138 -19 11 -3 34 13 71 50 30 30 60 55 66 55 6 0
18 -10 27 -22 l15 -23 48 19 c81 30 88 31 81 13 -4 -10 -10 -25 -14 -34 -5
-13 -3 -15 13 -9 58 23 294 36 294 16 0 -6 15 -8 38 -4 32 5 145 -9 254 -32
45 -9 93 -64 148 -169 29 -55 69 -122 90 -150 37 -51 100 -142 133 -195 32
-51 85 -213 96 -294 14 -96 14 -259 1 -351 -12 -82 -61 -237 -97 -309 -112
-223 -321 -437 -573 -587 -200 -119 -464 -212 -725 -255 -145 -24 -438 -29
-582 -10 -571 75 -981 388 -1167 889 -60 161 -79 269 -80 447 0 222 40 393
139 590 115 228 353 502 443 509 8 1 26 -7 40 -18z m2647 -237 c19 -45 20
-154 1 -197 -7 -18 -23 -41 -35 -51 -21 -19 -21 -19 -21 13 0 18 4 40 9 49 5
9 12 37 16 62 6 37 5 43 -6 33 -25 -24 -39 -15 -32 20 3 17 9 37 13 42 4 6 10
22 14 38 9 37 23 34 41 -9z m-3427 -216 c12 -24 22 -49 22 -55 0 -17 -22 -16
-46 2 -30 23 -35 18 -17 -20 9 -19 20 -35 25 -35 4 0 8 -5 8 -11 0 -5 18 -37
40 -70 37 -54 39 -59 20 -59 -29 0 -70 23 -100 55 -22 24 -25 35 -25 103 0 58
5 84 19 105 10 15 21 27 25 27 3 0 16 -19 29 -42z"/>
<path d="M2771 3199 c-95 -47 -184 -143 -277 -296 -10 -16 -13 -14 -32 22 -45
88 -157 170 -277 204 -54 15 -159 14 -220 -3 -149 -40 -253 -154 -286 -313
-34 -166 64 -342 227 -407 164 -66 382 -35 489 68 21 20 39 35 40 34 1 -2 12
-21 23 -43 58 -114 180 -167 387 -168 99 -1 130 3 179 21 33 12 62 26 65 31 3
4 17 12 30 16 36 11 103 65 152 123 95 113 143 266 121 393 -38 219 -209 349
-462 349 -88 0 -102 -3 -159 -31z m195 -82 c-55 -35 -86 -72 -102 -121 -15
-48 -15 -57 -1 -107 11 -36 28 -66 52 -89 31 -30 43 -35 98 -38 53 -3 67 0 97
20 76 52 105 172 59 247 -11 18 -18 35 -15 38 9 9 78 -62 105 -107 23 -41 26
-55 26 -145 0 -92 -3 -105 -32 -165 -107 -218 -386 -321 -597 -220 -76 36
-101 64 -122 135 -13 47 -13 60 1 126 35 169 146 331 283 411 38 22 59 28 107
27 51 0 57 -2 41 -12z m-823 -88 c31 -7 57 -15 57 -19 0 -4 -14 -13 -31 -21
-18 -7 -44 -32 -60 -58 -54 -85 -32 -214 46 -260 77 -47 140 -37 207 30 51 51
57 47 37 -25 -24 -88 -100 -162 -191 -186 -193 -52 -380 33 -418 191 -40 164
64 321 229 349 66 11 62 11 124 -1z"/>
<path d="M3683 1820 c-47 -19 -13 -110 40 -110 31 0 67 27 67 50 0 19 -54 70
-73 69 -7 0 -22 -4 -34 -9z"/>
<path d="M1632 1806 c-21 -11 -21 -11 6 -72 88 -197 267 -362 502 -462 305
-130 627 -131 890 -4 81 39 108 59 186 136 71 72 99 108 132 175 23 46 42 89
42 96 0 18 -63 40 -69 24 -17 -53 -89 -174 -130 -220 -269 -301 -861 -303
-1252 -3 -69 53 -156 151 -194 219 -16 28 -43 66 -61 86 -27 31 -34 35 -52 25z"/>
<path d="M1390 733 c-46 -7 -85 -15 -86 -16 -1 -1 -27 -42 -58 -91 -31 -50
-56 -87 -56 -84 0 4 14 43 30 88 17 45 30 86 30 92 0 14 -150 -1 -177 -18 -13
-8 -23 -19 -23 -24 0 -14 -114 -200 -175 -285 -30 -42 -55 -78 -55 -80 0 -2
15 -2 33 0 17 3 52 7 78 10 l45 6 89 149 c48 83 89 150 91 150 4 0 -14 -50
-75 -204 -28 -72 -49 -131 -48 -131 1 -1 20 0 42 3 39 4 41 6 119 133 43 71
81 128 82 126 2 -2 -14 -54 -36 -116 l-41 -113 33 5 c18 3 54 9 80 13 46 6 48
8 58 48 17 66 79 257 100 309 11 26 16 46 12 46 -4 -1 -45 -8 -92 -16z"/>
<path d="M1622 737 c-62 -9 -63 -9 -83 -54 -11 -25 -54 -115 -95 -201 -41 -85
-74 -158 -74 -163 0 -7 10 -6 83 13 32 7 41 16 56 51 39 90 85 185 133 270 27
49 48 90 46 91 -2 1 -31 -2 -66 -7z"/>
<path d="M1895 695 c-33 -30 -63 -55 -66 -55 -4 0 -9 23 -13 50 -4 28 -11 50
-17 50 -5 0 -33 -12 -60 -26 -48 -24 -51 -27 -45 -57 3 -17 9 -54 12 -82 7
-59 17 -46 -120 -165 l-97 -85 63 -7 63 -8 50 52 50 51 3 -51 c2 -29 6 -52 10
-52 3 0 33 10 65 22 l58 23 -6 91 -7 91 101 89 c56 48 101 91 101 95 0 4 -12
9 -27 12 -16 3 -35 8 -43 11 -9 3 -39 -17 -75 -49z"/>
<path d="M2126 738 c-33 -4 -63 -11 -67 -15 -9 -11 -189 -395 -189 -404 0 -4
17 -3 38 1 20 5 49 11 63 14 18 4 29 14 33 30 9 38 92 210 143 299 25 43 44
79 42 81 -2 1 -31 -1 -63 -6z"/>
<path d="M2341 734 c-167 -59 -323 -262 -281 -365 7 -16 27 -37 43 -46 63 -32
199 5 282 78 42 37 40 29 -12 -43 l-35 -48 29 5 c15 2 53 7 84 10 46 5 58 10
67 30 10 22 48 43 59 31 3 -3 0 -19 -6 -37 -6 -18 -10 -33 -9 -35 2 -1 35 3
75 10 58 10 70 10 62 -1 -9 -10 0 -11 43 -7 123 12 108 0 199 155 45 77 83
138 85 136 2 -2 -23 -72 -56 -157 -34 -84 -59 -154 -58 -156 2 -1 22 0 45 3
40 5 42 7 118 134 43 71 79 129 81 129 2 0 -14 -50 -36 -112 -22 -61 -40 -113
-40 -115 0 -5 104 7 137 16 23 6 29 18 53 106 23 84 60 192 95 279 7 15 4 17
-11 13 -10 -3 -41 -8 -69 -12 -101 -11 -100 -10 -155 -101 -28 -46 -53 -84
-55 -84 -4 0 12 45 54 154 l12 29 -75 -6 c-116 -10 -117 -10 -160 -90 -43 -79
-143 -234 -156 -242 -16 -10 56 219 105 339 7 16 4 18 -21 13 -16 -4 -56 -9
-89 -12 -124 -11 -123 -10 -176 -94 -42 -67 -52 -77 -76 -75 -15 0 -44 -3 -63
-7 -19 -4 -55 -9 -79 -10 -37 -3 -46 -8 -67 -38 -13 -20 -24 -39 -24 -44 0 -4
23 -5 50 -1 28 4 50 4 50 0 0 -3 -19 -19 -42 -36 -46 -34 -97 -39 -122 -14
-22 22 -20 34 15 87 55 83 135 134 191 123 22 -4 41 2 77 27 43 28 47 35 38
54 -19 42 -98 54 -176 27z m319 -170 c-32 -82 -51 -109 -68 -103 -6 2 13 45
41 96 29 50 53 90 55 88 1 -1 -11 -38 -28 -81z"/>
<path d="M3506 740 c-26 -5 -53 -11 -60 -13 -12 -5 -202 -404 -195 -411 2 -2
29 1 59 8 l55 12 90 180 c49 98 98 191 109 207 20 30 21 30 -58 17z"/>
<path d="M3666 739 c-32 -5 -61 -10 -63 -12 -10 -11 -210 -437 -205 -436 4 0
33 6 65 13 l59 12 28 64 c30 69 31 68 50 -18 10 -41 16 -52 29 -48 9 2 35 7
58 11 23 4 46 12 51 18 5 7 26 50 47 97 20 47 63 134 96 194 33 59 59 110 57
111 -8 7 -124 -17 -134 -28 -6 -7 -28 -50 -49 -97 -44 -99 -55 -114 -55 -78 0
25 24 152 36 191 3 9 2 16 -3 16 -4 -1 -35 -5 -67 -10z"/>
<path d="M4090 733 c-180 -62 -334 -279 -271 -379 52 -84 229 -42 354 83 52
51 95 118 84 129 -2 3 -46 -2 -98 -11 -52 -8 -97 -15 -101 -15 -7 0 -48 -63
-48 -74 0 -4 24 -4 53 -1 l52 6 -35 -30 c-39 -35 -91 -48 -126 -32 -31 14 -30
37 4 92 52 81 132 135 189 126 26 -5 44 1 83 25 47 29 49 33 37 52 -31 47 -96
58 -177 29z"/>
</g>
</svg>
